<?xml version="1.0" encoding="utf-8"?>
<!-- Generator: Adobe Illustrator 22.0.1, SVG Export Plug-In . SVG Version: 6.00 Build 0)  -->
<svg version="1.1" id="Layer_1" xmlns="http://www.w3.org/2000/svg" xmlns:xlink="http://www.w3.org/1999/xlink" x="0px" y="0px"
	 viewBox="0 0 203.3 132.8" style="enable-background:new 0 0 203.3 132.8;" xml:space="preserve">
<style type="text/css">
	.st0{fill:#FFFFFF;}
</style>
<g>
	<path class="st0" d="M104.7,2.4L60.8,129.5l0.7,0.2l19.9-57.5c1.3,3.4,2.6,7.5,3.7,10.8c0.4,1.2,0.4,1.3,0.7,1.3c0.7,0,2-0.3,3-0.4
		c0.9-0.1,0.9-0.1,1.3-1.3c2-4.4,4.1-8.8,4.9-10.2c1,2.9,1.3,4,3.5,10.9c0.4,1,0.5,1.2,0.9,1.2l2.9-0.4l1-0.6
		c0.3-0.8,1.8-4.6,2.2-5.5c5.6-12.4,6.1-12.6,7.6-13.1l0.4-1.1l-0.5-0.9c-0.3,0-1.7,0.1-2.8,0.1c-1.1,0-3.4-0.1-4.8-0.1
		c-0.4,0-0.6,0.1-0.6,1c0,1,0,1,1.2,1.1c0.7,0.1,1.6,0.3,1.6,1.3c0,1.3-3.4,9.2-4.4,11.4c-0.7-1.9-3.5-10.7-3.5-11.7
		c0-1,1-1,2.3-1.1c0.8,0,0.8-0.2,0.8-0.8c0-0.8-0.2-1.2-0.8-1.2c-0.7,0-4.2,0.1-5,0.1c-0.7,0-4.7-0.1-5.6-0.1l-0.7,1l0.3,1
		c0.9,0.1,1.5,0.3,2.1,2c0.4,1,0.6,1.6,1,2.6l-3.8,8.3c-0.8-2.3-1.6-4.6-2.4-7c-0.4-0.9-1.3-3.8-1.3-4.5c0-1.2,1.2-1.3,1.8-1.3
		c0.9-0.1,1-0.4,1-1c0-0.7-0.1-1-0.9-1c-1.3,0-2.4,0.1-3.6,0.1l20.8-60.3L104.7,2.4z M46.9,70.9c-5.1,0-6-7.4-6-10.4
		c0-0.8,0-6.4,4.4-6.4c4.7,0,6.1,6.1,6.1,10.2C51.5,65.6,51.5,70.9,46.9,70.9 M174,81.1c-6.4,0-6.4-7-6.4-8.6c0-3.2,0.8-6.8,4.8-6.8
		c3,0,5,1.8,5,2.4v12.2C176.6,80.7,175.7,81.1,174,81.1 M139.8,62.2l-1.3,0.2c-1.6,0.4-4.9,1.7-6.8,2.4c-1.2,0.5-1.3,0.5-1.3,1.2
		c0,1,0.2,1,1.4,1c1.9,0.1,2.2,1.2,2.2,5.4c0,3.6,0,6.1-0.2,7c-0.1,1.5-0.7,2.2-2.3,2.4c-1,0.1-1.1,0.3-1.1,1.2l0.6,0.9
		c1.1,0,3.2-0.1,6.4-0.1c2,0,3.8,0.1,5.9,0.1c0.7,0,0.7-0.2,0.7-1c0-0.9-0.1-1-0.8-1c-2.7,0-2.7-1.2-2.8-2.5
		c-0.1-1.4-0.1-8.8-0.1-10.7c0-1.1,0.2-1.2,0.5-1.3c0.8-0.4,3-0.9,4.4-0.9c4.1,0,4.1,3.6,4.1,5.9c0,1.6,0,5.9-0.1,7.1
		c-0.2,1.6-0.6,1.9-2.1,2.3c-0.7,0.2-0.7,0.2-0.7,1.1l0.6,0.9c2,0,4-0.1,5.9-0.1c2.1,0,4.2,0.1,6.2,0.1c0.8,0,0.9-0.3,0.9-1
		c0-0.8-0.1-1-0.9-1c-2.4-0.2-3-0.2-3.1-2.2c-0.2-1.6-0.2-4.4-0.2-8.6c0-2.3,0-4.9-1-6.5c-1.4-2.2-4.1-2.4-5-2.4
		c-3.5,0-8.1,2.6-9.5,3.5l0.3-3.2L139.8,62.2z M124.2,61.9c-0.6,0-1.4,0.2-2.4,0.5l-6.1,1.8c-0.9,0.2-0.9,0.2-0.9,1.3
		c0,0.8,0,0.8,1,1c2.2,0.4,2.4,1.1,2.4,4.4c0,3.5,0,6.9-0.2,8.2c-0.2,1.8-0.9,2.6-2.7,2.8c-1,0.1-1,0.2-1,1.2c0,0.9,0.2,1,0.7,1
		c2.2,0,4.2-0.1,6.3-0.1c2.2,0,4.5,0.1,6.7,0.1c0.7,0,0.9-0.4,0.9-1.1l-0.7-1c-1.9-0.1-2.9-0.2-3.2-1c-0.3-0.8-0.3-5.4-0.3-6.9
		c0-4.3,0-6.1,0.2-8.2l0.3-3.4L124.2,61.9z M47,51.4c-9,0-13.3,5.5-13.3,11c0,5.5,2.2,7.8,4.1,9c2.6,1.9,5.4,2.2,7.3,2.2
		c7.8,0,13.5-4.4,13.5-11.6C58.7,57.9,56.1,51.4,47,51.4 M69.6,51c-0.8,0-1.2,0.1-2.4,0.7c-1.3,0.7-4,1.9-4.7,2.1
		c-1.6,0.7-1.9,0.8-1.9,1.4c0,1,0.1,1.1,0.6,1.1c1.3,0.1,1.6,0.2,1.8,0.6c0.6,0.7,0.6,3.7,0.6,5.1c0,1.1,0,5.4-0.2,7
		c-0.2,1.5-1,1.7-2.1,2c-0.9,0.2-0.9,0.2-0.9,1.2l0.7,0.9c1.7,0,4.1-0.1,5.6-0.1c3.6,0,6.2,0.1,7.5,0.1c0.7,0,0.9-0.2,0.9-1.3
		c0-0.7-0.2-0.9-2.1-1c-3-0.1-3-0.4-3-10.7l0.1-2.4c0.6-0.5,2.3-1.3,3.3-1.3c1.5,0,1.8,0.7,2.4,2.2l0.6,0.7c0.4,0,3.7-1.8,3.7-4.4
		c0-1.5-1.2-3.7-3-3.7c-1.6,0-5.6,3.2-7.3,4.4l0.3-4.3L69.6,51z M121.8,50.5c-1.6,0-3.8,1.6-3.8,3.7c0,2.1,2.1,3.6,3.7,3.6
		c1.7,0,3.7-1.8,3.7-3.8C125.5,52.1,123.5,50.5,121.8,50.5 M183.9,48.5c-0.7,0-7.6,2.7-8.8,3.2c-0.9,0.4-0.9,0.4-0.9,1.4l0.4,0.9
		c2.4,0,3,0,3,5.3V63c-1-0.2-1.8-0.3-3.1-0.3c-8.1,0-13.8,5.3-13.8,12.5c0,2.6,0.9,5.8,3.2,7.6c1.8,1.5,4.1,1.7,5.5,1.7
		c3.6,0,6.3-1.2,7.9-2c0,1.7,0.1,2.7,1.8,2.7c1.7,0,7.2-1.5,8.7-1.9c0.7-0.3,0.7-0.4,0.7-1.2v-0.8c0-0.1-0.1-0.1-0.2-0.1
		c-0.4,0-1.5,0.3-2.9,0.3c-0.8,0-1.3-0.4-1.4-1.9c-0.2-1.6-0.2-6.4-0.2-12.3c0-16.3,0.6-17.3,0.6-18.5L183.9,48.5z M33.6,37.7
		c-1.7,0-5.5,0.5-9,3c-5.1,3.9-5.2,7.3-5.3,11.4l-2.9,1c-0.4,0.2-0.4,0.6-0.4,1.4l0.5,0.7l2.7-0.1c0,1.5,0,7-0.1,11
		c-0.2,4.3-0.4,4.5-3,4.8c-0.4,0-0.4,0.2-0.4,1c0,0.9,0.1,1,0.8,1c0.6,0,1.6,0,2.8-0.1c1.1,0,2.4-0.1,3.6-0.1c1.6,0,2.9,0.1,3.9,0.1
		c1,0.1,1.9,0.1,2.5,0.1c1.1,0,1.9,0,1.9-1c0-1,0-1.1-1.1-1.1c-2.9,0-3.8,0-4.1-2.3c-0.2-1.4-0.1-11.2-0.1-13.4l6.6,0.1
		c0.7,0,0.7-0.4,0.7-1.8v-1.4L32.5,52L25.9,52c0-7.5,0.2-10.1,4.7-10.1c2.1,0,2.9,0.7,3.3,1c1,0.8,1.3,1.5,2.1,1.5
		c0.9,0,3.7-1.8,3.7-3.3C39.7,38.7,36.4,37.7,33.6,37.7"/>
</g>
</svg>
